<?xml version="1.0" encoding="UTF-8" standalone="no"?>
<!-- Created with Inkscape (http://www.inkscape.org/) -->

<svg
   width="26.21566mm"
   height="9.6142387mm"
   viewBox="0 0 26.215661 9.6142388"
   version="1.1"
   id="svg1"
   inkscape:version="1.3 (0e150ed6c4, 2023-07-21)"
   sodipodi:docname="lazyboard-source.svg"
   inkscape:export-filename="lazyboard-source.png"
   inkscape:export-xdpi="96"
   inkscape:export-ydpi="96"
   xmlns:inkscape="http://www.inkscape.org/namespaces/inkscape"
   xmlns:sodipodi="http://sodipodi.sourceforge.net/DTD/sodipodi-0.dtd"
   xmlns="http://www.w3.org/2000/svg"
   xmlns:svg="http://www.w3.org/2000/svg">
  <sodipodi:namedview
     id="namedview1"
     pagecolor="#ffffff"
     bordercolor="#000000"
     borderopacity="0.25"
     inkscape:showpageshadow="2"
     inkscape:pageopacity="0.0"
     inkscape:pagecheckerboard="0"
     inkscape:deskcolor="#d1d1d1"
     inkscape:document-units="mm"
     inkscape:zoom="4.3389452"
     inkscape:cx="5.5312983"
     inkscape:cy="-25.467019"
     inkscape:window-width="1920"
     inkscape:window-height="1057"
     inkscape:window-x="2552"
     inkscape:window-y="-8"
     inkscape:window-maximized="1"
     inkscape:current-layer="layer1"
     showgrid="false" />
  <defs
     id="defs1">
    <rect
       x="135.58891"
       y="529.31824"
       width="374.17889"
       height="84.743065"
       id="rect2" />
    <rect
       x="135.58891"
       y="298.55634"
       width="381.99567"
       height="156.44875"
       id="rect1" />
    <rect
       x="135.58891"
       y="298.55634"
       width="354.85547"
       height="73.848137"
       id="rect1-5" />
    <rect
       x="135.58891"
       y="298.55634"
       width="354.85547"
       height="73.848137"
       id="rect1-5-6" />
    <clipPath
       clipPathUnits="userSpaceOnUse"
       id="clipPath256">
      <path
         d="M 0,252 H 144 V 0 H 0 Z"
         transform="translate(-62.164404,-211.95091)"
         id="path256" />
    </clipPath>
    <clipPath
       clipPathUnits="userSpaceOnUse"
       id="clipPath258">
      <path
         d="M 0,252 H 144 V 0 H 0 Z"
         id="path258" />
    </clipPath>
    <clipPath
       clipPathUnits="userSpaceOnUse"
       id="clipPath260">
      <path
         d="M 0,252 H 144 V 0 H 0 Z"
         id="path260" />
    </clipPath>
    <clipPath
       clipPathUnits="userSpaceOnUse"
       id="clipPath262">
      <path
         d="M 0,252 H 144 V 0 H 0 Z"
         transform="translate(-59.214804,-152.317)"
         id="path262" />
    </clipPath>
    <clipPath
       clipPathUnits="userSpaceOnUse"
       id="clipPath264">
      <path
         d="M 0,252 H 144 V 0 H 0 Z"
         transform="translate(-78.731402,-151.0213)"
         id="path264" />
    </clipPath>
    <clipPath
       clipPathUnits="userSpaceOnUse"
       id="clipPath266">
      <path
         d="M 0,252 H 144 V 0 H 0 Z"
         transform="translate(-11.1927,-84.963602)"
         id="path266" />
    </clipPath>
    <clipPath
       clipPathUnits="userSpaceOnUse"
       id="clipPath268">
      <path
         d="M 0,252 H 144 V 0 H 0 Z"
         transform="translate(-24.172103,-101.5854)"
         id="path268" />
    </clipPath>
    <clipPath
       clipPathUnits="userSpaceOnUse"
       id="clipPath270">
      <path
         d="M 0,252 H 144 V 0 H 0 Z"
         id="path270" />
    </clipPath>
    <clipPath
       clipPathUnits="userSpaceOnUse"
       id="clipPath272">
      <path
         d="M 0,252 H 144 V 0 H 0 Z"
         transform="translate(-43.044804,-101.5854)"
         id="path272" />
    </clipPath>
    <clipPath
       clipPathUnits="userSpaceOnUse"
       id="clipPath274">
      <path
         d="M 0,252 H 144 V 0 H 0 Z"
         transform="translate(-59.401299,-98.886805)"
         id="path274" />
    </clipPath>
    <clipPath
       clipPathUnits="userSpaceOnUse"
       id="clipPath276">
      <path
         d="M 0,252 H 144 V 0 H 0 Z"
         transform="translate(-70.228299,-101.5854)"
         id="path276" />
    </clipPath>
    <clipPath
       clipPathUnits="userSpaceOnUse"
       id="clipPath278">
      <path
         d="M 0,252 H 144 V 0 H 0 Z"
         transform="translate(-80.5423,-85.509902)"
         id="path278" />
    </clipPath>
    <clipPath
       clipPathUnits="userSpaceOnUse"
       id="clipPath280">
      <path
         d="M 0,252 H 144 V 0 H 0 Z"
         id="path280" />
    </clipPath>
    <clipPath
       clipPathUnits="userSpaceOnUse"
       id="clipPath282">
      <path
         d="M 0,252 H 144 V 0 H 0 Z"
         transform="translate(-105.822,-87.248402)"
         id="path282" />
    </clipPath>
    <clipPath
       clipPathUnits="userSpaceOnUse"
       id="clipPath284">
      <path
         d="M 0,252 H 144 V 0 H 0 Z"
         transform="translate(-119.08251,-87.0001)"
         id="path284" />
    </clipPath>
    <clipPath
       clipPathUnits="userSpaceOnUse"
       id="clipPath286">
      <path
         d="M 0,252 H 144 V 0 H 0 Z"
         transform="translate(-132.74031,-87.248402)"
         id="path286" />
    </clipPath>
    <clipPath
       clipPathUnits="userSpaceOnUse"
       id="clipPath288">
      <path
         d="M 0,252 H 144 V 0 H 0 Z"
         transform="translate(-22.031303,-55.197601)"
         id="path288" />
    </clipPath>
    <clipPath
       clipPathUnits="userSpaceOnUse"
       id="clipPath290">
      <path
         d="M 0,252 H 144 V 0 H 0 Z"
         transform="translate(-25.535498,-46.626999)"
         id="path290" />
    </clipPath>
    <clipPath
       clipPathUnits="userSpaceOnUse"
       id="clipPath292">
      <path
         d="M 0,252 H 144 V 0 H 0 Z"
         transform="translate(-40.987599,-46.626999)"
         id="path292" />
    </clipPath>
    <clipPath
       clipPathUnits="userSpaceOnUse"
       id="clipPath294">
      <path
         d="M 0,252 H 144 V 0 H 0 Z"
         transform="translate(-59.901699,-46.626999)"
         id="path294" />
    </clipPath>
    <clipPath
       clipPathUnits="userSpaceOnUse"
       id="clipPath296">
      <path
         d="M 0,252 H 144 V 0 H 0 Z"
         transform="translate(-79.576202,-53.720101)"
         id="path296" />
    </clipPath>
    <clipPath
       clipPathUnits="userSpaceOnUse"
       id="clipPath298">
      <path
         d="M 0,252 H 144 V 0 H 0 Z"
         transform="translate(-95.8306,-46.626999)"
         id="path298" />
    </clipPath>
    <clipPath
       clipPathUnits="userSpaceOnUse"
       id="clipPath300">
      <path
         d="M 0,252 H 144 V 0 H 0 Z"
         transform="translate(-107.01861,-46.626999)"
         id="path300" />
    </clipPath>
    <clipPath
       clipPathUnits="userSpaceOnUse"
       id="clipPath302">
      <path
         d="M 0,252 H 144 V 0 H 0 Z"
         transform="translate(-136.3191,-55.197601)"
         id="path302" />
    </clipPath>
    <clipPath
       clipPathUnits="userSpaceOnUse"
       id="clipPath304">
      <path
         d="M 0,252 H 144 V 0 H 0 Z"
         transform="translate(-10.850303,-33.927398)"
         id="path304" />
    </clipPath>
    <clipPath
       clipPathUnits="userSpaceOnUse"
       id="clipPath306">
      <path
         d="M 0,252 H 144 V 0 H 0 Z"
         transform="translate(-16.0383,-36.875603)"
         id="path306" />
    </clipPath>
    <clipPath
       clipPathUnits="userSpaceOnUse"
       id="clipPath308">
      <path
         d="M 0,252 H 144 V 0 H 0 Z"
         transform="translate(-22.144703,-41.009101)"
         id="path308" />
    </clipPath>
    <clipPath
       clipPathUnits="userSpaceOnUse"
       id="clipPath310">
      <path
         d="M 0,252 H 144 V 0 H 0 Z"
         transform="translate(-31.919603,-36.875603)"
         id="path310" />
    </clipPath>
    <clipPath
       clipPathUnits="userSpaceOnUse"
       id="clipPath312">
      <path
         d="M 0,252 H 144 V 0 H 0 Z"
         transform="translate(-40.475401,-33.927398)"
         id="path312" />
    </clipPath>
    <clipPath
       clipPathUnits="userSpaceOnUse"
       id="clipPath314">
      <path
         d="M 0,252 H 144 V 0 H 0 Z"
         transform="translate(-47.472099,-41.009101)"
         id="path314" />
    </clipPath>
    <clipPath
       clipPathUnits="userSpaceOnUse"
       id="clipPath316">
      <path
         d="M 0,252 H 144 V 0 H 0 Z"
         transform="translate(-54.905401,-36.875603)"
         id="path316" />
    </clipPath>
    <clipPath
       clipPathUnits="userSpaceOnUse"
       id="clipPath318">
      <path
         d="M 0,252 H 144 V 0 H 0 Z"
         transform="translate(-66.335702,-35.055601)"
         id="path318" />
    </clipPath>
    <clipPath
       clipPathUnits="userSpaceOnUse"
       id="clipPath320">
      <path
         d="M 0,252 H 144 V 0 H 0 Z"
         transform="translate(-70.656002,-41.009101)"
         id="path320" />
    </clipPath>
    <clipPath
       clipPathUnits="userSpaceOnUse"
       id="clipPath322">
      <path
         d="M 0,252 H 144 V 0 H 0 Z"
         transform="translate(-78.123399,-41.009101)"
         id="path322" />
    </clipPath>
    <clipPath
       clipPathUnits="userSpaceOnUse"
       id="clipPath324">
      <path
         d="M 0,252 H 144 V 0 H 0 Z"
         transform="translate(-89.814602,-33.927398)"
         id="path324" />
    </clipPath>
    <clipPath
       clipPathUnits="userSpaceOnUse"
       id="clipPath326">
      <path
         d="M 0,252 H 144 V 0 H 0 Z"
         transform="translate(-97.9057,-35.702003)"
         id="path326" />
    </clipPath>
    <clipPath
       clipPathUnits="userSpaceOnUse"
       id="clipPath328">
      <path
         d="M 0,252 H 144 V 0 H 0 Z"
         transform="translate(-102.3621,-36.410903)"
         id="path328" />
    </clipPath>
    <clipPath
       clipPathUnits="userSpaceOnUse"
       id="clipPath330">
      <path
         d="M 0,252 H 144 V 0 H 0 Z"
         transform="translate(-108.1908,-41.009101)"
         id="path330" />
    </clipPath>
    <clipPath
       clipPathUnits="userSpaceOnUse"
       id="clipPath332">
      <path
         d="M 0,252 H 144 V 0 H 0 Z"
         transform="translate(-114.64881,-41.009101)"
         id="path332" />
    </clipPath>
    <clipPath
       clipPathUnits="userSpaceOnUse"
       id="clipPath334">
      <path
         d="M 0,252 H 144 V 0 H 0 Z"
         transform="translate(-124.42371,-36.875603)"
         id="path334" />
    </clipPath>
    <clipPath
       clipPathUnits="userSpaceOnUse"
       id="clipPath336">
      <path
         d="M 0,252 H 144 V 0 H 0 Z"
         transform="translate(-132.9795,-33.927398)"
         id="path336" />
    </clipPath>
  </defs>
  <g
     inkscape:label="Layer 1"
     inkscape:groupmode="layer"
     id="layer1"
     transform="translate(-42.291906,-59.859513)">
    <path
       style="font-style:oblique;font-weight:bold;font-size:22.0964px;font-family:Serpentine;-inkscape-font-specification:'Serpentine, Bold Oblique';text-align:center;white-space:pre;stroke:#000000;stroke-width:0;stroke-linecap:round;stroke-dasharray:none"
       d="m 67.433285,61.837677 -0.392669,-1.570672 c -0.05557,-0.225972 -0.107425,-0.314878 -0.174108,-0.407488 h 1.052056 c -0.02223,0.0926 -0.02964,0.181516 0.02593,0.407488 l 0.388963,1.555855 c 0.05557,0.225969 0.107425,0.314876 0.174108,0.407487 h -2.04484 l -0.196334,-0.470462 c 0.118544,0.06297 0.307467,0.0778 0.411191,0.0778 z m -1.722556,-1.348408 0.166698,0.414895 c -0.118544,-0.05187 -0.203742,-0.07409 -0.366738,-0.07409 h -0.870537 c -0.122247,0 -0.140769,0.03335 -0.122247,0.111127 0.02223,0.0815 0.05557,0.111127 0.177813,0.111127 h 0.796449 c 0.39267,0 0.544551,0.162994 0.633458,0.526028 l 0.03334,0.125948 c 0.0889,0.363035 0.01852,0.526029 -0.374146,0.526029 h -0.622343 c -0.237084,0 -0.31858,-0.03705 -0.403781,-0.192632 h -0.0074 l 0.0038,0.192632 h -0.874244 c 0.03335,-0.07038 0.04815,-0.148178 0.0038,-0.325991 L 63.69567,61.144933 c -0.118544,-0.477869 0.0038,-0.655682 0.422304,-0.655682 z m -1.077987,0.903878 0.05927,0.248196 c 0.05557,0.222264 0.0815,0.248197 0.248197,0.248197 h 0.203742 c 0.133352,-0.0038 0.181516,-0.02222 0.148178,-0.148178 l -0.04815,-0.200037 c -0.03334,-0.125949 -0.0889,-0.144472 -0.222264,-0.148178 z m -1.411386,-0.903878 0.1667,0.433417 c -0.222266,-0.0852 -0.285242,-0.09262 -0.488984,-0.09262 h -0.54455 l 1.385453,1.400271 h -2.311559 l -0.170402,-0.440826 c 0.0852,0.04445 0.203743,0.100021 0.474166,0.100021 h 0.614934 L 60.995,60.489264 Z m -3.208028,1.741078 c -0.207447,0 -0.255604,-0.05927 -0.322283,-0.170405 h -0.0074 l 0.08892,0.363035 c 0.01852,0.0815 0.05927,0.125948 0.207445,0.125948 h 0.8372 c 0.207448,0 0.28524,-0.04445 0.359329,-0.0852 l 0.03705,0.426009 h -1.715148 c -0.318581,0 -0.526029,-0.1667 -0.607526,-0.496394 L 58.41675,60.489269 h 0.944629 c -0.02964,0.0778 -0.04445,0.111127 0.01113,0.329693 l 0.229676,0.9224 c 0.03334,0.137068 0.05927,0.148178 0.140767,0.148178 h 0.322285 c 0.107425,0 0.137068,-0.03705 0.107425,-0.144473 l -0.311173,-1.255798 h 0.970499 c -0.02964,0.0889 -0.05557,0.15929 0.0038,0.400078 l 0.174108,0.707544 c 0.100021,0.388963 -0.01113,0.633456 -0.422304,0.633456 z m -2.719044,-1.029829 h -0.526028 c -0.114842,0 -0.144473,0.01852 -0.114842,0.133352 l 0.0926,0.370441 c 0.02593,0.114843 0.06668,0.133366 0.181517,0.133366 h 0.526028 z m -0.237083,-0.948332 h -0.526028 c -0.114829,0 -0.144472,0.01852 -0.114829,0.133366 l 0.07038,0.288945 c 0.02964,0.114843 0.06668,0.133352 0.181516,0.133352 h 0.526028 z m 1.296546,1.570674 c 0.05557,0.225969 0.107425,0.314876 0.174108,0.407487 H 56.58674 c -0.500098,0 -0.663092,-0.20004 -0.73718,-0.488985 l -0.09632,-0.392669 c -0.06297,-0.251899 0.04815,-0.296353 0.429712,-0.344509 l -0.0038,-0.0074 c -0.337103,-0.02593 -0.533435,-0.0778 -0.607526,-0.377852 l -0.06668,-0.270422 c -0.07405,-0.28892 -0.0073,-0.48896 0.492735,-0.48896 h 1.94112 c -0.02222,0.0926 -0.02963,0.181516 0.02593,0.407487 z m -3.81926,-0.852017 c -0.02222,-0.100021 -0.06297,-0.140767 -0.15929,-0.140767 h -0.363034 c -0.103723,0 -0.122247,0.04075 -0.100021,0.140767 l 0.196334,0.77793 c 0.02222,0.100021 0.06297,0.140767 0.1667,0.140767 h 0.363033 c 0.09632,0 0.114843,-0.04075 0.0926,-0.140767 z m -1.485471,0.04445 c -0.0889,-0.363034 -0.01852,-0.526027 0.374144,-0.526027 h 1.363228 c 0.392669,0 0.54455,0.162993 0.633457,0.526027 l 0.174107,0.689022 c 0.0889,0.363034 0.01852,0.526028 -0.374147,0.526028 h -1.363228 c -0.392668,0 -0.544549,-0.162994 -0.633455,-0.526028 z m -0.511214,-0.526027 0.1667,0.414894 c -0.118544,-0.05187 -0.203744,-0.07409 -0.366738,-0.07409 h -0.87054 c -0.122247,0 -0.140766,0.03334 -0.122247,0.111127 0.02223,0.0815 0.05557,0.111127 0.177813,0.111127 h 0.79645 c 0.392667,0 0.544548,0.162994 0.633455,0.526028 l 0.03335,0.125948 c 0.0889,0.363035 0.01852,0.526029 -0.374148,0.526029 h -0.622341 c -0.237084,0 -0.318582,-0.03705 -0.403781,-0.192632 h -0.0074 l 0.0038,0.192632 h -0.874244 c 0.03335,-0.07038 0.04815,-0.148178 0.0038,-0.325991 L 50.522737,61.14493 c -0.118545,-0.477869 0.0038,-0.655681 0.422304,-0.655681 z m -1.077988,0.903877 0.05927,0.248196 c 0.05557,0.222265 0.0815,0.248198 0.248197,0.248198 h 0.203745 c 0.133353,-0.0038 0.181515,-0.02223 0.148174,-0.148178 L 52.07105,61.541321 C 52.03771,61.415373 51.98213,61.396849 51.848783,61.393143 Z M 50.08918,60.489267 c -0.02963,0.0889 -0.05557,0.159289 0.0038,0.400077 l 0.233378,0.940923 c 0.05927,0.240786 0.122246,0.31117 0.196334,0.400077 h -1.066874 c 0.02964,-0.0889 0.05557,-0.159291 -0.0038,-0.400077 L 49.31495,61.270899 c -0.05927,-0.237083 -0.140768,-0.296354 -0.485281,-0.296354 -0.259306,0 -0.292647,0.02222 -0.385257,0.0852 l -0.140768,-0.570479 h 0.426006 c 0.270424,0 0.381556,0.07409 0.51862,0.281536 h 0.0074 l -0.04075,-0.281536 z m -3.089484,1.266911 c 0.02593,0.09632 0.07038,0.133353 0.155585,0.133353 h 0.348217 c 0.0852,0 0.114828,-0.03705 0.0889,-0.133353 l -0.196334,-0.792746 c -0.02593,-0.09632 -0.07038,-0.133366 -0.155586,-0.133366 h -0.348216 c -0.0852,0 -0.114842,0.03705 -0.0889,0.133366 z m -0.829791,0.474166 c 0.02222,-0.07038 0.03705,-0.148178 -0.0074,-0.325991 l -0.507507,-2.044839 h 0.948333 c -0.02593,0.07038 -0.03705,0.148178 0.0074,0.325989 l 0.114842,0.474165 h 0.0074 c 0.0074,-0.07038 0.02593,-0.170401 0.185222,-0.170401 h 0.685316 c 0.400077,0 0.60382,0.222263 0.681612,0.540844 l 0.166699,0.659387 c 0.0778,0.31858 -0.01482,0.540846 -0.414895,0.540846 h -0.73718 c -0.100021,0 -0.159289,-0.05927 -0.251898,-0.185221 l -0.0038,0.185221 z"
       id="text1"
       aria-label="LazyBoard" />
    <path
       style="font-style:oblique;font-weight:bold;font-size:22.0964px;font-family:Serpentine;-inkscape-font-specification:'Serpentine, Bold Oblique';text-align:center;white-space:pre;stroke:#000000;stroke-width:0;stroke-linecap:round;stroke-dasharray:none"
       d="m 62.989132,67.693983 c -0.238707,0 -0.502395,-0.165152 -0.571788,-0.444107 -0.06939,-0.278955 0.112421,-0.444106 0.351123,-0.444106 0.238707,0 0.501007,0.165151 0.5704,0.444106 0.06939,0.278955 -0.11103,0.444107 -0.349735,0.444107 z m -0.433004,-0.444107 c 0.04996,0.201236 0.231768,0.338632 0.406636,0.338632 0.17903,0 0.28728,-0.137402 0.237319,-0.338632 -0.04996,-0.201236 -0.226217,-0.338631 -0.405248,-0.338631 -0.174866,0 -0.288669,0.137402 -0.238707,0.338631 z m 0.216501,0.06801 c 0.01666,0.05551 0.06662,0.08189 0.124905,0.08189 0.07494,0 0.106868,-0.06801 0.08466,-0.155437 -0.02221,-0.09299 -0.0805,-0.151275 -0.158214,-0.151275 -0.05275,0 -0.09298,0.02221 -0.08882,0.07773 h -0.104085 c -0.01113,-0.120744 0.05968,-0.183196 0.16654,-0.183196 0.152661,0 0.273402,0.109638 0.310873,0.258137 0.03609,0.14711 -0.03469,0.259526 -0.184581,0.259526 -0.104085,0 -0.212338,-0.06662 -0.259525,-0.187357 z m -1.917984,-0.512111 h 0.532928 c 0.144335,0 0.241484,0.06939 0.288669,0.260912 l 0.0916,0.366387 c 0.04857,0.191523 -0.01527,0.260914 -0.1596,0.260914 h -0.546807 l -0.07355,-0.180417 c 0.05135,0.02359 0.07634,0.0333 0.212339,0.0333 h 0.191521 c 0.04441,0 0.06246,-0.01392 0.05135,-0.05691 L 61.323743,67.00977 c -0.0097,-0.04302 -0.03609,-0.05691 -0.0805,-0.05691 H 61.00038 c -0.06523,0 -0.09576,0.0097 -0.130457,0.02359 z m -0.433002,0.14711 h -0.191522 c -0.04302,0 -0.05412,0.007 -0.04302,0.04996 l 0.02637,0.108246 c 0.01113,0.04302 0.02498,0.04996 0.068,0.04996 h 0.191518 z m -0.01527,0.355285 -0.06523,0.385818 h -0.378879 c 0.02082,-0.0333 0.02637,-0.0791 0.04025,-0.13601 l 0.05828,-0.249809 c -0.07355,-0.0056 -0.13878,-0.01252 -0.172091,-0.142946 l -0.04025,-0.163765 c -0.03746,-0.148499 0.02637,-0.195685 0.181805,-0.195685 h 0.730002 c -0.01666,0.03469 -0.01943,0.068 0.0014,0.152661 l 0.145721,0.58289 c 0.02082,0.08466 0.04025,0.117974 0.06523,0.152663 h -0.394144 c 0.0084,-0.03469 0.01113,-0.06801 -0.0097,-0.152663 l -0.05828,-0.233155 z m -1.505802,-0.502395 h 0.53293 c 0.144334,0 0.241483,0.06939 0.288669,0.260912 l 0.0916,0.366387 c 0.04857,0.191523 -0.01527,0.260914 -0.159601,0.260914 h -0.546806 l -0.07355,-0.180417 c 0.05135,0.02359 0.07633,0.0333 0.212337,0.0333 h 0.191522 c 0.04441,0 0.06246,-0.01392 0.05135,-0.05691 L 59.36967,67.00977 c -0.0097,-0.04302 -0.03609,-0.05691 -0.08049,-0.05691 h -0.242872 c -0.06523,0 -0.09576,0.0097 -0.130457,0.02359 z m 0.04719,0.738328 c 0.0222,0.09021 0.0458,0.116582 0.07355,0.149885 h -0.399696 c 0.01113,-0.0333 0.02082,-0.05967 -0.0014,-0.149885 l -0.124904,-0.502397 h 0.36361 c -0.01113,0.0333 -0.02082,0.05967 0.0014,0.149885 z m -0.18597,-0.738328 0.04302,0.172091 h -0.321978 l -0.04302,-0.172091 z m -0.68559,0.413575 c -0.0097,-0.03609 -0.02637,-0.04996 -0.05828,-0.04996 h -0.130457 c -0.03193,0 -0.04302,0.01392 -0.0333,0.04996 l 0.07355,0.296996 c 0.0097,0.03609 0.02637,0.04996 0.05828,0.04996 h 0.130457 c 0.03191,0 0.04302,-0.01392 0.0333,-0.04996 z m 0.145723,0.474638 -0.03748,-0.06939 c -0.01253,0.04719 -0.02359,0.06939 -0.05828,0.06939 H 57.84999 c -0.149886,0 -0.226217,-0.08326 -0.255362,-0.202625 l -0.06246,-0.247032 c -0.02914,-0.119352 0.0056,-0.202625 0.155439,-0.202625 h 0.256749 c 0.05968,0 0.08605,0.03748 0.09992,0.06384 h 0.0028 l -0.07355,-0.299771 H 58.3288 c -0.0097,0.02637 -0.01392,0.05551 0.0028,0.122135 l 0.159601,0.643955 c 0.01666,0.06662 0.03609,0.09576 0.05828,0.122135 z m -1.089448,-0.383043 -0.02221,-0.08882 c -0.0084,-0.03748 -0.02359,-0.05275 -0.05967,-0.05275 h -0.134619 c -0.03609,0 -0.04302,0.01527 -0.03469,0.05275 l 0.02221,0.08882 z m -0.516275,0.127674 -0.04996,-0.199847 c -0.0333,-0.13601 -0.007,-0.197073 0.140171,-0.197073 h 0.498233 c 0.147109,0 0.204012,0.06107 0.237319,0.197073 l 0.06523,0.258137 c 0.0333,0.13601 0.007,0.197072 -0.14017,0.197072 h -0.652282 l -0.06384,-0.155437 c 0.05828,0.02359 0.09298,0.02775 0.155436,0.02775 h 0.315039 c 0.05273,0 0.06939,-0.01943 0.05828,-0.06662 l -0.01527,-0.06107 z m -0.194299,-0.39692 c -0.01113,0.0333 -0.02082,0.05968 0.0013,0.149885 l 0.08743,0.352512 c 0.0222,0.09021 0.0458,0.116582 0.07355,0.149885 h -0.399697 c 0.01113,-0.0333 0.02082,-0.05967 -0.0013,-0.149885 l -0.05135,-0.209564 c -0.0222,-0.08882 -0.05273,-0.111029 -0.181807,-0.111029 -0.09715,0 -0.109637,0.0083 -0.144334,0.03193 l -0.05273,-0.213727 h 0.159602 c 0.101316,0 0.142945,0.02777 0.194297,0.105477 h 0.0028 l -0.01528,-0.105477 z m -0.705018,0 c -0.01113,0.0333 -0.02082,0.05968 0.0013,0.149885 l 0.08744,0.352512 c 0.0222,0.09021 0.0458,0.116582 0.07355,0.149885 h -0.399696 c 0.01113,-0.0333 0.02082,-0.05967 -0.0013,-0.149885 l -0.0791,-0.320591 c -0.01113,-0.04025 -0.02775,-0.05412 -0.06801,-0.05412 h -0.119351 c -0.04025,0 -0.05135,0.01392 -0.04025,0.05412 l 0.0791,0.320591 c 0.02221,0.09021 0.0458,0.116582 0.07355,0.149885 H 54.92442 c 0.01113,-0.0333 0.02082,-0.05967 -0.0013,-0.149885 l -0.06523,-0.265077 c -0.03748,-0.145723 0.0042,-0.23732 0.158215,-0.23732 h 0.265074 c 0.04857,0 0.07771,0.03469 0.101316,0.06801 h 0.0028 l -0.007,-0.06801 z m -1.283744,0.26924 -0.02221,-0.08882 c -0.0084,-0.03748 -0.02359,-0.05275 -0.05968,-0.05275 h -0.13461 c -0.03609,0 -0.04303,0.01527 -0.03469,0.05275 l 0.02221,0.08882 z m -0.516275,0.127674 -0.04996,-0.199848 c -0.0333,-0.13601 -0.007,-0.197073 0.140171,-0.197073 h 0.498232 c 0.147109,0 0.204013,0.06107 0.23732,0.197073 l 0.06523,0.258137 c 0.0333,0.13601 0.007,0.197072 -0.140173,0.197072 H 54.015407 L 53.95157,67.53854 c 0.05828,0.02359 0.09298,0.02775 0.155437,0.02775 h 0.315039 c 0.05273,0 0.06939,-0.01943 0.05828,-0.06662 l -0.01528,-0.06107 z m -0.287284,-0.396921 h 0.140172 l 0.03193,0.127688 H 53.66151 l 0.0791,0.32059 c 0.04164,0.162376 -0.03886,0.204011 -0.142948,0.204011 h -0.410798 l -0.05828,-0.152663 c 0.01664,0.007 0.05967,0.02498 0.123512,0.02498 h 0.115191 c 0.0583,0 0.06246,-0.01113 0.05274,-0.05273 l -0.08605,-0.344184 H 53.07307 l -0.03193,-0.127688 h 0.260912 l -0.03469,-0.141558 0.328917,0.0084 z m -0.595379,0.502397 c 0.0222,0.09021 0.0458,0.116582 0.07355,0.149885 h -0.399696 c 0.01113,-0.0333 0.02082,-0.05968 -0.0013,-0.149885 L 52.58182,67.041694 h 0.363609 c -0.01113,0.0333 -0.02082,0.05968 0.0013,0.149885 z m -0.18597,-0.738328 0.04302,0.172091 h -0.321978 l -0.04302,-0.172091 z m -0.670324,0.430229 c -0.01392,-0.04719 -0.03886,-0.06662 -0.0916,-0.06662 h -0.187357 c -0.0791,0 -0.126296,0.01113 -0.145721,0.03469 L 51.7421,67.041684 h 0.509332 c 0.149887,0 0.226219,0.08326 0.255362,0.202625 l 0.06245,0.247033 c 0.02914,0.119351 -0.0056,0.202625 -0.155437,0.202625 H 51.90725 l -0.06384,-0.159601 c 0.04302,0.01805 0.07355,0.03191 0.181806,0.03191 h 0.159603 c 0.05273,0 0.06939,-0.01943 0.05828,-0.06662 z m -0.598156,-0.194298 0.06246,0.155438 c -0.04441,-0.01943 -0.07634,-0.02776 -0.137402,-0.02776 h -0.326141 c -0.0458,0 -0.05273,0.01252 -0.0458,0.04164 0.0084,0.03053 0.02082,0.04164 0.06662,0.04164 h 0.298385 c 0.147109,0 0.204012,0.06107 0.237318,0.19707 l 0.01253,0.04719 c 0.0333,0.13601 0.007,0.197072 -0.140172,0.197072 h -0.233155 c -0.08882,0 -0.119352,-0.01392 -0.151273,-0.07217 h -0.0028 l 0.0013,0.07217 h -0.32753 c 0.01252,-0.02637 0.01805,-0.05551 0.0013,-0.122135 l -0.07078,-0.284507 c -0.04441,-0.179029 0.0013,-0.245646 0.158212,-0.245646 z m -0.40386,0.338631 0.02221,0.09299 c 0.02082,0.08326 0.03053,0.09298 0.09298,0.09298 h 0.07634 c 0.04996,-0.0013 0.068,-0.0084 0.05551,-0.05551 l -0.01805,-0.07494 c -0.01253,-0.04719 -0.0333,-0.05412 -0.08327,-0.05551 z"
       id="path1" />
    <path
       style="font-style:oblique;font-weight:bold;font-size:22.0964px;font-family:Serpentine;-inkscape-font-specification:'Serpentine, Bold Oblique';text-align:center;white-space:pre;stroke:#000000;stroke-width:0;stroke-linecap:round;stroke-dasharray:none"
       d="m 58.624396,69.326627 -0.02776,-0.109638 c -0.007,-0.02914 -0.01943,-0.05691 -0.05551,-0.0583 l -0.340019,-0.01665 c -0.148499,-0.007 -0.208175,-0.04303 -0.241484,-0.176256 l -0.04441,-0.177643 c -0.03053,-0.124905 -0.01392,-0.202624 0.185969,-0.202624 h 0.655066 l 0.07355,0.179031 c -0.04719,-0.02221 -0.09715,-0.03193 -0.14711,-0.03193 h -0.388596 c -0.04996,0 -0.06107,0.01664 -0.05412,0.04164 l 0.01113,0.04857 c 0.0084,0.03469 0.02221,0.04719 0.06523,0.04857 l 0.364999,0.01943 c 0.120744,0.007 0.181807,0.03609 0.21928,0.187357 l 0.09853,0.395533 h -0.89238 l -0.07771,-0.185969 c 0.08189,0.02914 0.105477,0.03886 0.194297,0.03886 z m -1.396161,-0.593993 c -0.04441,0 -0.06246,0.01392 -0.05273,0.05691 l 0.119352,0.480191 c 0.01113,0.04302 0.03746,0.05691 0.08189,0.05691 h 0.147109 c 0.04441,0 0.06246,-0.01392 0.05135,-0.05691 L 57.455853,68.78954 c -0.0097,-0.04302 -0.03609,-0.05691 -0.0805,-0.05691 z m 0.291445,-0.147112 c 0.144334,0 0.241483,0.06939 0.28867,0.260913 l 0.0916,0.366389 c 0.04857,0.19152 -0.01527,0.260912 -0.159604,0.260912 H 57.2324 c -0.144334,0 -0.241482,-0.06939 -0.290058,-0.260912 l -0.0916,-0.366389 c -0.04719,-0.19152 0.01664,-0.260913 0.160987,-0.260913 z m -1.003403,0.741105 -0.02775,-0.109638 c -0.007,-0.02914 -0.01943,-0.05691 -0.05551,-0.0583 l -0.34002,-0.01665 c -0.148499,-0.007 -0.208175,-0.04303 -0.241482,-0.176256 l -0.04441,-0.177643 c -0.03053,-0.124905 -0.01392,-0.202624 0.185971,-0.202624 h 0.655056 l 0.07355,0.179031 c -0.04719,-0.02221 -0.09715,-0.03193 -0.14711,-0.03193 h -0.388595 c -0.04996,0 -0.06107,0.01664 -0.05412,0.04164 l 0.01113,0.04857 c 0.0084,0.03469 0.0222,0.04719 0.06523,0.04857 l 0.365001,0.01943 c 0.120744,0.007 0.181804,0.03609 0.219277,0.187357 l 0.09853,0.395533 h -0.892376 l -0.07771,-0.185969 c 0.08189,0.02914 0.105476,0.03886 0.194295,0.03886 z m -1.31289,-0.285896 h 0.34557 l -0.417739,-0.292833 z m -0.333081,0 -0.112421,-0.453822 h 0.392758 l 0.648119,0.469088 0.05412,0.21789 h -0.591218 l 0.01943,0.07773 c 0.01666,0.06662 0.03469,0.09576 0.06107,0.122135 h -0.395533 c 0.01252,-0.02637 0.01805,-0.05551 0.0013,-0.122135 l -0.01943,-0.07773 h -0.151273 l -0.05828,-0.233156 z"
       id="path2" />
    <path
       style="font-style:oblique;font-weight:bold;font-size:22.0964px;font-family:Serpentine;-inkscape-font-specification:'Serpentine, Bold Oblique';text-align:center;white-space:pre;stroke:#000000;stroke-width:0;stroke-linecap:round;stroke-dasharray:none"
       d="m 44.928789,62.093525 0.068,-0.389982 c 0.0042,-0.02914 0.007,-0.04996 0.0028,-0.06523 -0.0015,-0.007 -0.0056,-0.01666 -0.01113,-0.02775 h 0.395534 c -0.01665,0.02359 -0.02359,0.04996 -0.02637,0.07078 l -0.111029,0.581502 h -0.348345 l -0.340022,-0.517661 c -0.03746,-0.05691 -0.04718,-0.07217 -0.106868,-0.134619 h 0.192908 c -0.0028,0.01392 -0.0015,0.02637 0.0015,0.03886 0.0028,0.01392 0.0097,0.02775 0.01805,0.04025 z m -1.083894,-0.571789 c -0.04441,0 -0.06246,0.01392 -0.05273,0.05691 l 0.119352,0.48019 c 0.01113,0.04302 0.03746,0.05691 0.08189,0.05691 h 0.14711 c 0.04441,0 0.06246,-0.01392 0.05135,-0.05691 l -0.119352,-0.48019 c -0.0097,-0.04303 -0.03609,-0.05691 -0.0805,-0.05691 z m 0.291443,-0.14711 c 0.144335,0 0.241484,0.06939 0.288669,0.260913 l 0.0916,0.366389 c 0.04857,0.191521 -0.01525,0.260912 -0.159601,0.260912 H 43.84906 c -0.144333,0 -0.241481,-0.06939 -0.290056,-0.260912 l -0.0916,-0.366389 c -0.04718,-0.19152 0.01664,-0.260913 0.16099,-0.260913 z m -0.678651,0.888214 h -0.32753 l -0.05828,-0.233156 h 0.32753 z m -1.16578,-0.888214 h 0.09021 l 0.402469,0.113799 0.03886,0.156824 H 42.69715 l 0.123513,0.495457 c 0.01664,0.06662 0.03469,0.09576 0.06107,0.122135 H 42.48064 c 0.01252,-0.02637 0.01805,-0.05551 0.0015,-0.122135 z"
       id="text1-0-0"
       aria-label="v0.1" />
    <text
       xml:space="preserve"
       transform="scale(0.26458333)"
       id="text2"
       style="font-style:normal;font-variant:normal;font-weight:normal;font-stretch:normal;font-size:73.24px;font-family:Roboto;-inkscape-font-specification:'Roboto, Normal';font-variant-ligatures:normal;font-variant-caps:normal;font-variant-numeric:normal;font-variant-east-asian:normal;text-align:center;white-space:pre;shape-inside:url(#rect2);display:inline;fill:#000000;stroke-width:1.32283;stroke-linecap:round" />
    <path
       style="font-size:10.3689px;font-family:Roboto;-inkscape-font-specification:'Roboto, Normal';text-align:center;text-anchor:middle;stroke:#000000;stroke-width:0;stroke-linecap:round;stroke-dasharray:none"
       d="m 66.53051,63.964571 v 0.55168 h 0.18583 V 63.107048 H 66.1966 q -0.231319,0 -0.36198,0.118086 -0.131626,0.118085 -0.131626,0.312618 0,0.205186 0.128717,0.31649 0.127758,0.110333 0.36682,0.110333 z m 0,-0.151953 H 66.1966 q -0.149051,0 -0.228415,-0.06968 -0.07937,-0.07066 -0.07937,-0.203249 0,-0.125823 0.07937,-0.201316 0.07937,-0.0755 0.217768,-0.07839 h 0.344557 z m -1.542768,-0.182926 q 0.04065,-0.0068 0.08808,-0.0068 0.176149,0 0.239061,0.150017 v 0.743316 h 0.179054 v -1.047223 h -0.174215 l -0.0029,0.12098 q -0.08808,-0.140338 -0.249707,-0.140338 -0.05226,0 -0.07937,0.0135 z m -0.09775,0.353269 q 0,-0.153891 -0.06001,-0.276808 -0.06097,-0.122914 -0.168407,-0.1897 -0.108399,-0.06679 -0.246803,-0.06679 -0.213898,0 -0.345527,0.148083 -0.132601,0.148082 -0.132601,0.393919 v 0.01253 q 0,0.15292 0.05904,0.27487 0.05808,0.12098 0.167439,0.188733 0.108399,0.06775 0.249707,0.06775 0.212929,0 0.345527,-0.148082 0.131626,-0.148083 0.131626,-0.391983 z m -0.180023,0.02129 q 0,0.174213 -0.08033,0.279711 -0.0813,0.10549 -0.216801,0.10549 -0.13647,0 -0.2168,-0.106464 -0.08033,-0.107439 -0.08033,-0.300036 0,-0.172279 0.08226,-0.278743 0.0813,-0.107439 0.216801,-0.107439 0.1326,0 0.213896,0.10549 0.0813,0.105491 0.0813,0.301973 z m -0.954309,-0.02032 q 0,-0.240997 -0.114202,-0.387144 -0.114203,-0.147115 -0.299069,-0.147115 -0.183892,0 -0.291326,0.125823 V 63.029623 H 62.87201 v 1.486632 h 0.164537 l 0.0088,-0.112268 q 0.107439,0.131627 0.299068,0.131627 0.181959,0 0.297134,-0.149051 0.114202,-0.14905 0.114202,-0.38908 z m -0.179054,0.02032 q 0,0.178085 -0.07357,0.278742 -0.07355,0.100661 -0.20325,0.100661 -0.170343,0 -0.24874,-0.152922 v -0.481026 q 0.08033,-0.148082 0.246804,-0.148082 0.131627,0 0.205186,0.101622 0.07357,0.101621 0.07357,0.301005 z m -1.628907,0.408435 q 0.104531,0.122915 0.306812,0.122915 0.167439,0 0.255515,-0.09679 0.08711,-0.09775 0.08808,-0.288422 V 63.469017 H 62.41905 v 0.676534 q 0,0.238094 -0.193572,0.238094 -0.205186,0 -0.272936,-0.152922 v -0.761706 h -0.179054 v 1.047224 h 0.170343 z m -0.866234,-0.02323 q -0.09582,0 -0.167439,-0.05807 -0.07162,-0.05808 -0.07937,-0.145179 h -0.169375 q 0.0049,0.09002 0.06194,0.171311 0.0571,0.0813 0.152922,0.129692 0.09484,0.04839 0.201314,0.04839 0.213898,0 0.340687,-0.142276 0.125823,-0.143243 0.125823,-0.391014 v -0.03 q 0,-0.152922 -0.05614,-0.271969 -0.05614,-0.119046 -0.160665,-0.184862 -0.105491,-0.06581 -0.248739,-0.06581 -0.176151,0 -0.292295,0.105504 -0.117111,0.105491 -0.124849,0.273904 h 0.169375 q 0.0078,-0.101622 0.07743,-0.166472 0.06872,-0.06581 0.170343,-0.06581 0.13647,0 0.211961,0.09873 0.07453,0.09775 0.07453,0.283582 v 0.03387 q 0,0.18099 -0.07453,0.278743 -0.07453,0.09775 -0.212929,0.09775 z m -0.860427,-1.174013 v 0.253579 H 60.02553 v 0.138404 h 0.195508 v 0.649434 q 0,0.0629 -0.02614,0.09484 -0.02614,0.03097 -0.08904,0.03097 -0.03097,0 -0.08517,-0.01155 v 0.145178 q 0.07066,0.01936 0.13743,0.01936 0.12002,0 0.18099,-0.07259 0.06097,-0.07259 0.06097,-0.206154 v -0.649433 h 0.190669 v -0.138402 h -0.19067 V 63.2155 Z m -0.337783,0.767513 q 0,-0.15389 -0.06001,-0.276808 -0.06097,-0.122914 -0.168408,-0.1897 -0.108399,-0.06679 -0.246804,-0.06679 -0.213898,0 -0.345526,0.148083 -0.1326,0.148082 -0.1326,0.393919 v 0.01252 q 0,0.152921 0.05903,0.274871 0.05808,0.12098 0.167438,0.188733 0.108399,0.06775 0.249709,0.06775 0.212929,0 0.345525,-0.148081 0.131627,-0.148084 0.131627,-0.391983 z m -0.180022,0.02129 q 0,0.174214 -0.08033,0.279711 -0.0813,0.105491 -0.2168,0.105491 -0.13647,0 -0.216801,-0.106465 -0.08033,-0.107439 -0.08033,-0.300035 0,-0.172279 0.08226,-0.278744 0.0813,-0.107439 0.216801,-0.107439 0.132601,0 0.213896,0.105491 0.0813,0.10549 0.0813,0.301972 z m -1.445014,-0.02032 q 0,-0.240996 -0.114202,-0.387144 -0.114202,-0.147114 -0.29907,-0.147114 -0.183892,0 -0.291324,0.125823 v -0.545873 h -0.179054 v 1.486633 h 0.164536 l 0.0088,-0.112268 q 0.107439,0.131626 0.29907,0.131626 0.181957,0 0.297133,-0.14905 0.114203,-0.149051 0.114203,-0.38908 z m -0.179052,0.02032 q 0,0.178086 -0.07357,0.278743 -0.07355,0.100661 -0.20325,0.100661 -0.170343,0 -0.248739,-0.152922 V 63.74971 q 0.08033,-0.148082 0.246804,-0.148082 0.131627,0 0.205185,0.101622 0.07357,0.101621 0.07357,0.301005 z M 56.662218,64.5356 q 0.212931,0 0.346496,-0.139372 0.13356,-0.140339 0.13356,-0.374561 v -0.03291 q 0,-0.155825 -0.05904,-0.277775 -0.06001,-0.122915 -0.16647,-0.191636 -0.107439,-0.06968 -0.232288,-0.06968 -0.204219,0 -0.317457,0.134535 -0.113242,0.134535 -0.113242,0.385209 v 0.07452 h 0.709441 q -0.0039,0.154858 -0.09001,0.250676 -0.08711,0.09484 -0.220671,0.09484 -0.09484,0 -0.160664,-0.03872 -0.06581,-0.03872 -0.115176,-0.102596 l -0.109373,0.08517 q 0.131626,0.202283 0.394886,0.202283 z m 0.02227,-0.938824 q 0.108399,0 0.181957,0.07937 0.07357,0.07839 0.09098,0.220671 h -0.524578 v -0.0135 q 0.0078,-0.136469 0.07355,-0.210993 0.06581,-0.0755 0.178085,-0.0755 z m -2.193169,0.472316 q 0.02614,0.223576 0.165506,0.345526 0.138404,0.12098 0.368754,0.12098 0.249706,0 0.400693,-0.179054 0.150019,-0.179054 0.150019,-0.479091 v -0.135495 q 0,-0.196475 -0.06968,-0.345526 -0.07066,-0.14905 -0.19938,-0.228414 -0.128718,-0.08033 -0.298099,-0.08033 -0.224545,0 -0.360045,0.125823 -0.135496,0.124849 -0.157761,0.346494 h 0.186797 q 0.0242,-0.168407 0.105504,-0.2439 0.08033,-0.0755 0.225512,-0.0755 0.178086,0 0.279711,0.131627 0.100661,0.131626 0.100661,0.374561 v 0.13647 q 0,0.229382 -0.09582,0.364882 -0.09582,0.135496 -0.268096,0.135496 -0.154858,0 -0.237125,-0.06968 -0.08324,-0.07066 -0.110334,-0.244869 z m -0.178085,-0.08613 q 0,-0.15389 -0.06001,-0.276808 -0.06097,-0.122914 -0.168407,-0.1897 -0.108399,-0.06679 -0.246805,-0.06679 -0.213896,0 -0.345525,0.148083 -0.132601,0.148082 -0.132601,0.393919 v 0.01252 q 0,0.152921 0.05904,0.274871 0.05808,0.12098 0.16744,0.188733 0.108399,0.06775 0.249709,0.06775 0.212929,0 0.345526,-0.148081 0.131626,-0.148084 0.131626,-0.391983 z m -0.180022,0.02129 q 0,0.174214 -0.08033,0.279711 -0.0813,0.105491 -0.216801,0.105491 -0.136469,0 -0.216801,-0.106465 -0.08033,-0.107439 -0.08033,-0.300035 0,-0.172279 0.08226,-0.278744 0.0813,-0.107439 0.216801,-0.107439 0.1326,0 0.213897,0.105491 0.0813,0.10549 0.0813,0.301972 z m -1.607614,0.234221 q 0,-0.07259 0.05517,-0.112268 0.05419,-0.04065 0.190669,-0.06968 0.135495,-0.02903 0.21583,-0.06968 0.07937,-0.04065 0.118086,-0.09678 0.03774,-0.05614 0.03774,-0.133561 0,-0.128717 -0.108399,-0.217768 -0.109373,-0.08904 -0.278743,-0.08904 -0.178087,0 -0.288423,0.09195 -0.111308,0.09195 -0.111308,0.235191 h 0.180018 q 0,-0.07357 0.06292,-0.126784 0.06194,-0.05323 0.156794,-0.05323 0.09775,0 0.15292,0.04259 0.05517,0.04259 0.05517,0.111308 0,0.06485 -0.0513,0.09775 -0.0513,0.03291 -0.184863,0.06292 -0.134535,0.03001 -0.217768,0.07162 -0.08324,0.04161 -0.122914,0.100661 -0.04065,0.05808 -0.04065,0.142276 0,0.140338 0.112268,0.22551 0.112267,0.0842 0.291324,0.0842 0.125823,0 0.222609,-0.04452 0.09678,-0.04452 0.151953,-0.123888 0.05419,-0.08033 0.05419,-0.173247 h -0.179054 q -0.0049,0.09002 -0.07162,0.143243 -0.06775,0.05226 -0.178085,0.05226 -0.101622,0 -0.1626,-0.04065 -0.06194,-0.04161 -0.06194,-0.110334 z m -0.655241,-1.023027 v 0.253579 h -0.195508 v 0.138404 h 0.195508 v 0.649434 q 0,0.0629 -0.02614,0.09484 -0.02614,0.03097 -0.08904,0.03097 -0.03098,0 -0.08517,-0.01155 v 0.145178 q 0.07066,0.01936 0.13743,0.01936 0.12002,0 0.18099,-0.07259 0.06097,-0.07259 0.06097,-0.206154 V 63.60749 h 0.190668 v -0.138404 h -0.190668 v -0.253579 z m -1.051097,1.300803 q 0.01549,-0.03098 0.02516,-0.110333 0.124849,0.129692 0.298102,0.129692 0.154857,0 0.254547,-0.08711 0.09873,-0.08808 0.09873,-0.222607 0,-0.163569 -0.123888,-0.253579 -0.124849,-0.09098 -0.350363,-0.09098 h -0.174215 v -0.08226 q 0,-0.09388 0.05614,-0.149051 0.05614,-0.05614 0.165503,-0.05614 0.09582,0 0.160665,0.04839 0.06485,0.04839 0.06485,0.117111 h 0.18002 q 0,-0.07839 -0.05517,-0.150986 -0.05614,-0.07357 -0.150986,-0.116151 -0.09582,-0.04258 -0.210026,-0.04258 -0.18099,0 -0.283583,0.09098 -0.102595,0.09001 -0.106464,0.24874 v 0.481993 q 0,0.144212 -0.03678,0.229384 v 0.01549 z m 0.297134,-0.136469 q -0.0842,0 -0.159697,-0.04356 -0.0755,-0.04356 -0.109373,-0.113242 v -0.214865 h 0.14034 q 0.329073,0 0.329073,0.192605 0,0.0842 -0.05614,0.131626 -0.05614,0.04743 -0.144212,0.04743 z m -1.764407,-0.433602 h 0.331008 v 0.57007 h 0.186796 v -1.409203 h -0.466507 q -0.238095,0 -0.365852,0.108399 -0.128718,0.108399 -0.128718,0.315522 0,0.131627 0.07162,0.229383 0.07066,0.09775 0.197442,0.146148 l -0.331006,0.598136 v 0.01155 h 0.199378 z m 0.331008,-0.151953 h -0.285518 q -0.138404,0 -0.219705,-0.07162 -0.08226,-0.07162 -0.08226,-0.191636 0,-0.130666 0.07839,-0.200347 0.07743,-0.06968 0.224543,-0.07066 h 0.284551 z m -1.201113,0.722023 h 0.179055 v -1.047225 h -0.179055 z m 0.193572,-1.325 q 0,-0.04356 -0.02614,-0.07356 -0.0271,-0.03001 -0.07937,-0.03001 -0.05226,0 -0.07937,0.03001 -0.0271,0.03 -0.0271,0.07356 0,0.04356 0.0271,0.07259 0.0271,0.02903 0.07937,0.02903 0.05226,0 0.07937,-0.02903 0.02614,-0.02903 0.02614,-0.07259 z m -0.900107,1.19821 q -0.09582,0 -0.167441,-0.05808 -0.07162,-0.05807 -0.07937,-0.145178 h -0.169377 q 0.0049,0.09001 0.06194,0.17131 0.0571,0.0813 0.152922,0.129692 0.09484,0.04839 0.201315,0.04839 0.213897,0 0.340686,-0.142275 0.125823,-0.143243 0.125823,-0.391015 v -0.03 q 0,-0.152922 -0.05614,-0.271969 -0.05614,-0.119045 -0.160663,-0.184861 -0.105504,-0.06581 -0.24874,-0.06581 -0.176152,0 -0.292295,0.105504 -0.117111,0.10549 -0.124849,0.273903 h 0.169378 q 0.0078,-0.101621 0.07743,-0.166471 0.06872,-0.06581 0.170344,-0.06581 0.13647,0 0.211961,0.09873 0.07453,0.09775 0.07453,0.283583 v 0.03387 q 0,0.18099 -0.07453,0.278742 -0.07453,0.09775 -0.212928,0.09775 z m -1.264027,0.126797 q 0.01549,-0.03098 0.02516,-0.110334 0.124849,0.129692 0.298102,0.129692 0.154856,0 0.254546,-0.08711 0.09873,-0.08808 0.09873,-0.222607 0,-0.163568 -0.123889,-0.253579 -0.124848,-0.09098 -0.350363,-0.09098 h -0.174215 v -0.08226 q 0,-0.09388 0.05614,-0.14905 0.05614,-0.05614 0.165503,-0.05614 0.09582,0 0.160666,0.04839 0.06485,0.04839 0.06485,0.117111 h 0.180001 q 0,-0.07839 -0.05517,-0.150986 -0.05614,-0.07356 -0.150988,-0.116151 -0.09582,-0.04259 -0.210025,-0.04259 -0.18099,0 -0.283582,0.09098 -0.102596,0.09001 -0.106465,0.24874 v 0.481994 q 0,0.144212 -0.03678,0.229383 v 0.01549 z m 0.297133,-0.13647 q -0.0842,0 -0.159696,-0.04356 -0.0755,-0.04356 -0.109374,-0.113242 v -0.214865 h 0.14034 q 0.32907,0 0.32907,0.192605 0,0.0842 -0.05614,0.131627 -0.05614,0.04743 -0.14421,0.04743 z"
       id="text4"
       aria-label="Producto de Costa Rica" />
  </g>
</svg>
